# xmcd CD database file
#
# Track frame offsets:
#	150
#	23851
#	38590
#	59582
#	78237
#	94423
#	111762
#	123580
#	143410
#	157948
#	173503
#	193490
#	205154
#	224718
#	237994
#	253289
#	270513
#	286638
#	299263
#	317000
#
# Disc length: 4403 seconds
#
# Revision: 0
# Processed by: cddbd v1.4b41PL1 Copyright (c) Steve Scherf et al.
# Submitted via: Feurio! 1.61 - http://www.feurio.com
#
DISCID=27113114
DTITLE=Various Artist - Texas Radio Recordings
DYEAR=1900
DGENRE=
TTITLE0=David Allan Coe - You Never Even Call Me By My Name
TTITLE1=Rick Trevino - Bobby Ann Mason
TTITLE2=Lorrie Morgan - Something In Red
TTITLE3=Shania Twain - Any Man Of Mine
TTITLE4=Lorrie Morgan - Watch Me
TTITLE5=Alan Jackson - I Don't Even Know Your Name
TTITLE6=Martina Mc Bride - My Baby Loves Me
TTITLE7=Shania Twain - Rock This Country
TTITLE8=David Allan Coe - Willie, Waylon And Me
TTITLE9=Martina Mc Bride - Independence Day
TTITLE10=Shania Twain - Whose Bed Have Your Boots Been Under
TTITLE11=Rick Trevino - I Want A Girl In A Pickup Truck
TTITLE12=Alan Jackson - Gone Country
TTITLE13=Lorrie Morgan - Except For Monday
TTITLE14=Neal Mc Coy - They Are Playing Our Song
TTITLE15=Alan Jackson - Living On Love
TTITLE16=Lorrie Morgan - Five Minutes
TTITLE17=Alan Jackson - Who I Am
TTITLE18=Shania Twain - Man I Feel Like A Woman
TTITLE19=Neal Mc Coy - Twang
EXTD=
EXTT0=
EXTT1=
EXTT2=
EXTT3=
EXTT4=
EXTT5=
EXTT6=
EXTT7=
EXTT8=
EXTT9=
EXTT10=
EXTT11=
EXTT12=
EXTT13=
EXTT14=
EXTT15=
EXTT16=
EXTT17=
EXTT18=
EXTT19=
PLAYORDER=
